<svg version="1.2" baseProfile="tiny" xmlns="http://www.w3.org/2000/svg" viewBox="0 0 536 327">
  <path fill="#e20101" class="is-svgaccent" d="M300.5 35.8c3.8-3 20.5-17.9 28.8-28.1.6-.8.2-1.9-.7-2.2-43.7-12.7-176-.4-238.8 94.7-.9 1.3-.7 1.7.3 2.5 21.9-35.5 71.6-63.4 131.7-69.2 24.7-2.4 49.9-.4 74.7 3.9 2.4.2 2.3-.2 4-1.6z" />
  <path fill="#e20101" class="is-svgaccent" d="M235.5 290.2c-3.8 3-20.5 17.9-28.8 28.1-.6.8-.2 1.9.7 2.2 43.7 12.7 176 .3 238.8-94.8.9-1.3.7-1.7-.3-2.5-21.9 35.5-71.6 63.4-131.7 69.2-24.7 2.4-49.9.4-74.7-3.9-2.4-.2-2.3.2-4 1.7z" />
  <g>
    <path fill="#04246a" d="M239.3 201.2h17.5l-30.9-75h-22.8l-30.9 75h17l5-13h40l5.1 13zm-39-27l13.9-36.3 13.9 36.3h-27.8zM127.5 193.2l19.1-31.9c.7-1.2 4.4-7.6 5.6-10.1h.2c-.2 2.8-.2 7.8-.2 10.1v39.9h16v-75h-15.3l-24.3 40.2-24.3-40.2H86.2v75h16v-39.9c0-2.3-.1-7.2-.2-10.1h.2c1.2 2.4 4.9 8.9 5.6 10.1l19.1 31.9h.6zM492 193.2l19.5-31.9c.7-1.2 4.5-7.6 5.7-10.1h.2c-.2 2.8-.2 7.8-.2 10.1v39.9h16v-75h-16.3l-24.3 40.2-24.3-40.2h-18.1v75h16v-39.9c0-2.3-.1-7.2-.2-10.1h.2c1.2 2.4 5 8.9 5.7 10.1l19.5 31.9h.6zM77.2 179.2h-17v.5c0 6.1-3.3 7.5-10.6 7.5H33.4c-12.3 0-14.2-1.5-14.2-15.8V155c0-13.3 1.8-14.8 13.9-14.8H49c7.2 0 10.4 1.3 10.4 7h18.9c0-16.4-6.5-22-26.9-22H30.2c-19.4 0-27 7.3-27 26.2v23.9c0 18.5 7.5 25.8 26.6 25.8h20.9c20.2 0 26.5-5.5 26.5-21.6v-.3zM354.2 179.2h-17v.5c0 6.1-3.3 7.5-10.6 7.5h-16.2c-12.3 0-14.2-1.5-14.2-15.8V155c0-13.3 1.8-14.8 13.9-14.8H326c7.2 0 10.4 1.3 10.4 7h18.9c0-16.4-6.5-22-26.9-22h-21.2c-19.4 0-27 7.4-27 26.3v23.9c0 18.5 7.5 25.7 26.6 25.7h20.9c20.2 0 26.5-5.5 26.5-21.5v-.4zM423.2 172.2v7.9c0 5.8-3.2 7.1-10.5 7.1h-19.4c-12.2 0-14-1.4-14-15V155c0-13.3 1.8-14.8 13.9-14.8h18.5c7.2 0 10.4 1.3 10.4 7H441c0-16.4-6.5-22-26.9-22h-23.7c-19.4 0-27 7.4-27 26.3V175c0 18.8 7.5 26.2 26.4 26.2H413c20.1 0 26.3-5.6 26.3-21.9v-20.1h-38v13h21.9z" />
  </g>
</svg>
